# xmcd CD database file
#
# Track frame offsets:
#	150
#	59817
#	92816
#	144925
#	207678
#	244427
#	279206
#
# Disc length: 4394 seconds
#
# Revision: 0
# Processed by: cddbd v1.5.2PL0 Copyright (c) Steve Scherf et al.
# Submitted via: CDex 1.51
#
DISCID=6e112807
DTITLE=Nitai Das - Chaitanya Kripa
DYEAR=1900
DGENRE=New Age
TTITLE0=Mangalacarana
TTITLE1=Nikunja Me Biraje
TTITLE2=Maha Mantra
TTITLE3=Sri Radhe Govinda
TTITLE4=Govinda Jaya Jaya
TTITLE5=Maha Mantra
TTITLE6=Maha Mantra
EXTD=
EXTT0=
EXTT1=
EXTT2=
EXTT3=
EXTT4=
EXTT5=
EXTT6=
PLAYORDER=
